<?xml version="1.0" encoding="utf-8"?>
<!-- Generator: Adobe Illustrator 22.1.0, SVG Export Plug-In . SVG Version: 6.00 Build 0)  -->
<svg version="1.1" id="Layer_1" xmlns="http://www.w3.org/2000/svg" xmlns:xlink="http://www.w3.org/1999/xlink" x="0px" y="0px"
	 viewBox="0 0 200 200" style="enable-background:new 0 0 200 200;" xml:space="preserve">
<style type="text/css">
	.st0{fill:#D2D2D2;}
</style>
<g>
	<path class="st0" d="M142.5,26.9l-0.4-0.2c-0.9-0.5-1.3-1.8-0.7-2.7l5.7-9.9c0.5-0.9,1.8-1.3,2.7-0.7l0.4,0.2
		c0.9,0.5,1.3,1.8,0.7,2.7l-5.7,9.9C144.6,27.1,143.4,27.4,142.5,26.9z"/>
	<path class="st0" d="M50.2,186.7l-0.4-0.2c-0.9-0.5-1.3-1.8-0.7-2.7l5.7-9.9c0.5-0.9,1.8-1.3,2.7-0.7l0.4,0.2
		c0.9,0.5,1.3,1.8,0.7,2.7l-5.7,9.9C52.4,186.9,51.1,187.3,50.2,186.7z"/>
</g>
<g>
	<path class="st0" d="M173.3,57.9l-0.2-0.4c-0.5-0.9-0.2-2.2,0.7-2.7l9.9-5.7c0.9-0.5,2.2-0.2,2.7,0.7l0.2,0.4
		c0.5,0.9,0.2,2.2-0.7,2.7l-9.9,5.7C175.1,59.2,173.9,58.9,173.3,57.9z"/>
	<path class="st0" d="M13.5,150.2l-0.2-0.4c-0.5-0.9-0.2-2.2,0.7-2.7l9.9-5.7c0.9-0.5,2.2-0.2,2.7,0.7l0.2,0.4
		c0.5,0.9,0.2,2.2-0.7,2.7l-9.9,5.7C15.3,151.5,14.1,151.1,13.5,150.2z"/>
</g>
<g>
	<path class="st0" d="M173.1,142.5l0.2-0.4c0.5-0.9,1.8-1.3,2.7-0.7l9.9,5.7c0.9,0.5,1.3,1.8,0.7,2.7l-0.2,0.4
		c-0.5,0.9-1.8,1.3-2.7,0.7l-9.9-5.7C172.9,144.6,172.6,143.4,173.1,142.5z"/>
	<path class="st0" d="M13.3,50.2l0.2-0.4c0.5-0.9,1.8-1.3,2.7-0.7l9.9,5.7c0.9,0.5,1.3,1.8,0.7,2.7l-0.2,0.4
		c-0.5,0.9-1.8,1.3-2.7,0.7L14,52.9C13.1,52.4,12.7,51.1,13.3,50.2z"/>
</g>
<g>
	<path class="st0" d="M142.1,173.3l0.4-0.2c0.9-0.5,2.2-0.2,2.7,0.7l5.7,9.9c0.5,0.9,0.2,2.2-0.7,2.7l-0.4,0.2
		c-0.9,0.5-2.2,0.2-2.7-0.7l-5.7-9.9C140.8,175.1,141.1,173.9,142.1,173.3z"/>
	<path class="st0" d="M49.8,13.5l0.4-0.2c0.9-0.5,2.2-0.2,2.7,0.7l5.7,9.9c0.5,0.9,0.2,2.2-0.7,2.7l-0.4,0.2
		c-0.9,0.5-2.2,0.2-2.7-0.7l-5.7-9.9C48.5,15.3,48.9,14.1,49.8,13.5z"/>
</g>
<g>
	<path class="st0" d="M18.6,99.2v1.7c0,1.1-0.9,2-2,2H2c-1.1,0-2-0.9-2-2l0-1.7c0-1.1,0.9-2,2-2h14.6C17.7,97.2,18.6,98.1,18.6,99.2
		z"/>
	<path class="st0" d="M200,99.2v1.7c0,1.1-0.9,2-2,2h-14.6c-1.1,0-2-0.9-2-2v-1.7c0-1.1,0.9-2,2-2H198C199.1,97.2,200,98.1,200,99.2
		z"/>
</g>
<g>
	<path class="st0" d="M100.8,18.6h-1.7c-1.1,0-2-0.9-2-2V2c0-1.1,0.9-2,2-2h1.7c1.1,0,2,0.9,2,2v14.6
		C102.8,17.7,101.9,18.6,100.8,18.6z"/>
	<path class="st0" d="M100.8,200h-1.7c-1.1,0-2-0.9-2-2v-14.6c0-1.1,0.9-2,2-2h1.7c1.1,0,2,0.9,2,2V198
		C102.8,199.1,101.9,200,100.8,200z"/>
</g>
</svg>
